<?xml version="1.0" encoding="UTF-8" standalone="no"?>
<svg
   xmlns:dc="http://purl.org/dc/elements/1.1/"
   xmlns:cc="http://creativecommons.org/ns#"
   xmlns:rdf="http://www.w3.org/1999/02/22-rdf-syntax-ns#"
   xmlns:svg="http://www.w3.org/2000/svg"
   xmlns="http://www.w3.org/2000/svg"
   xmlns:sodipodi="http://sodipodi.sourceforge.net/DTD/sodipodi-0.dtd"
   xmlns:inkscape="http://www.inkscape.org/namespaces/inkscape"
   width="96"
   height="32"
   viewBox="0 0 96 32"
   fill="none"
   version="1.1"
   id="svg3777"
   sodipodi:docname="logo-cept-on-dark.svg"
   inkscape:version="0.92.3 (2405546, 2018-03-11)">
  <metadata
     id="metadata3781">
    <rdf:RDF>
      <cc:Work
         rdf:about="">
        <dc:format>image/svg+xml</dc:format>
        <dc:type
           rdf:resource="http://purl.org/dc/dcmitype/StillImage" />
        <dc:title></dc:title>
      </cc:Work>
    </rdf:RDF>
  </metadata>
  <sodipodi:namedview
     pagecolor="#ffffff"
     bordercolor="#666666"
     borderopacity="1"
     objecttolerance="10"
     gridtolerance="10"
     guidetolerance="10"
     inkscape:pageopacity="0"
     inkscape:pageshadow="2"
     inkscape:window-width="3440"
     inkscape:window-height="1377"
     id="namedview3779"
     showgrid="false"
     inkscape:zoom="17.09375"
     inkscape:cx="31.613919"
     inkscape:cy="27.572033"
     inkscape:window-x="1016"
     inkscape:window-y="-8"
     inkscape:window-maximized="1"
     inkscape:current-layer="svg3777"
     inkscape:pagecheckerboard="true" />
  <defs
     id="defs3775">
    <clipPath
       id="clip0">
      <rect
         width="96"
         height="32"
         fill="white"
         id="rect3772" />
    </clipPath>
  </defs>
  <g
     id="g3803"
     transform="matrix(0.02578807,0,0,-0.02578807,-10.787682,38.642991)"
     style="fill:#1878c6;fill-opacity:1;stroke:none">
    <path
       id="path3799"
       d="m 945,1485 c -109,-38 -150,-179 -80,-271 31,-41 94,-73 143,-74 64,0 138,44 168,102 18,35 18,121 -1,157 -20,39 -69,78 -113,91 -48,13 -68,12 -117,-5 z"
       inkscape:connector-curvature="0"
       style="fill:#1878c6;fill-opacity:1" />
    <path
       id="path3801"
       d="m 1227,1297 c -13,-92 -60,-158 -160,-220 -71,-45 -132,-70 -335,-138 -95,-31 -176,-59 -179,-62 -13,-13 11,-25 64,-32 160,-19 270,-61 337,-128 78,-79 117,-177 137,-349 6,-57 16,-107 21,-113 23,-24 132,170 192,342 50,145 68,241 68,363 -1,153 -34,263 -106,346 l -33,38 z"
       inkscape:connector-curvature="0"
       style="fill:#1878c6;fill-opacity:1" />
  </g>
  <text
     xml:space="preserve"
     style="font-style:normal;font-variant:normal;font-weight:normal;font-stretch:normal;font-size:40px;line-height:1.25;font-family:Haettenschweiler;-inkscape-font-specification:Haettenschweiler;letter-spacing:0px;word-spacing:0px;fill:#ffffff;fill-opacity:1;stroke:none"
     x="29.425962"
     y="29.718464"
     id="text3791"><tspan
       sodipodi:role="line"
       id="tspan3789"
       x="29.425962"
       y="29.718464">CEP<tspan
   style="font-size:14.66666698px"
   id="tspan3793">Evry</tspan></tspan></text>
</svg>
